<svg xmlns="http://www.w3.org/2000/svg" viewBox="0 0 820 220"><rect width="820" height="220" y="-.1" fill="#0b0b2e" rx="34" ry="34"/><g fill="#49b799"><g fill-rule="evenodd" paint-order="markers fill stroke" transform="translate(34.6 32.7)"><path d="m 67.250186,0.24995072 c -3.739499,0 -6.749976,3.12209138 -6.749976,7.00009178 0,3.8779985 3.010477,7.0000905 6.749976,7.0000905 h 26.178248 17.071826 c 3.878,0 6.99958,3.122088 6.99958,7.000089 0,3.878 -3.12158,6.999573 -6.99958,6.999573 H 93.428434 v 0.0021 c -3.84452,0.03842 -6.92826,3.144089 -6.92826,6.998023 0,3.853934 3.08374,6.959603 6.92826,6.998023 v 0.0021 h 27.071736 c 3.878,0 7.00009,3.122089 7.00009,7.00009 0,3.878 -3.12209,7.000089 -7.00009,7.000089 H 93.428434 79.500085 c -3.878001,0 -7.00009,3.122088 -7.00009,7.000089 0,3.878001 3.122089,6.999573 7.00009,6.999573 h 13.928349 3.071646 c 3.878,0 7.00009,3.122089 7.00009,7.000089 0,3.878001 -3.12209,7.00009 -7.00009,7.00009 h -3.071646 -27.92853 c -3.877998,0 -7.00009,3.122091 -7.00009,7.000089 0,3.878 3.122092,7.000089 7.00009,7.000089 h 27.92853 27.071736 c 3.878,0 7.00009,3.121581 7.00009,6.999581 0,3.878 -3.12209,7.00009 -7.00009,7.00009 H 93.428434 v 0.002 c -3.84452,0.0384 -6.92826,3.14409 -6.92826,6.99803 0,3.85393 3.08374,6.9596 6.92826,6.99802 v 0.002 h 20.071646 c 3.878,0 7.00009,3.12208 7.00009,7.00008 0,3.87801 -3.12209,7.00009 -7.00009,7.00009 H 93.428434 80.500022 c -3.877998,0 -7.000089,3.12158 -7.000089,6.99958 0,3.878 3.122091,7.00009 7.000089,7.00009 h 27.939388 0.0605 a 41,41 0 0 0 41.00008,-41.00028 41,41 0 0 0 -21.37906,-35.999879 41,41 0 0 0 21.37906,-35.99987 41,41 0 0 0 -41.00008,-41.00008328 41,41 0 0 0 -0.59118,0.00413 c -0.0529,-0.00132 -0.10542,-0.00413 -0.15865,-0.00413 z"/><rect width="28" height="14" x="25.5" y=".3" rx="7" ry="7"/><rect width="14" height="14" x="65.5" y="28.3" rx="7" ry="7"/><rect width="42" height="14" x="23.5" y="56.3" rx="7" ry="7"/><rect width="20" height="14" x="31.5" y="84.2" rx="7" ry="7"/><rect width="20" height="14" x="59.5" y="112.3" rx="7" ry="7"/><rect width="56" height="14" x="10.5" y="140.3" rx="7" ry="7"/><rect width="28" height="14" x="30.5" y="28.3" rx="7" ry="7"/><rect width="20" height="14" x="4.5" y="84.2" rx="7" ry="7"/><rect width="42" height="14" x="10.5" y="112.3" rx="7" ry="7"/></g><g style="-inkscape-font-specification:Elephant;text-align:end" text-anchor="end"><path d="M289.1 106.9q0 17.8-8 31.5-7.8 13.5-21.3 21-13.2 7.6-29.7 7.6-16.5 0-29.9-7.6-13.2-7.6-21.3-21-7.8-13.7-7.8-31.5 0-17.8 7.8-31.2 8-13.7 21.3-21.3 13.5-7.8 29.9-7.8 16.5 0 29.7 7.8 13.5 7.6 21.3 21.3 8 13.5 8 31.2zm-26 0q0-11.1-4.6-19.1-4.3-8.2-11.9-12.8-7.4-4.6-16.5-4.6-9.1 0-16.7 4.6-7.4 4.6-11.9 12.8-4.3 8-4.3 19.1 0 10.8 4.3 19.1 4.6 8 11.9 12.6 7.6 4.6 16.7 4.6 9.1 0 16.5-4.6 7.6-4.6 11.9-12.6 4.6-8.2 4.6-19.1zM294.6 146.8q-2.2-3-2-7.8.2-4.8 5.6-8.2 3.5-2.2 7.4-1.7 3.9.2 7.6 3.9 6.3 6.3 13.2 9.8 6.9 3.5 17.4 3.5 3.3-.2 7.2-.9 3.9-.9 6.7-3.5 3-2.8 3-8.5 0-4.8-3.3-7.6-3.3-2.8-8.7-4.8-5.2-2-11.7-3.7-6.7-2-13.9-4.3-6.9-2.4-12.8-6.1-5.9-3.9-9.5-10.2-3.7-6.3-3.7-15.8 0-10.8 6.1-18.4 6.1-7.6 15.6-11.7 9.8-4.1 20.4-4.1 6.7 0 14.1 1.7 7.4 1.5 14.1 5.2 6.7 3.5 11.3 9.3 2.4 3.3 2.8 7.8.4 4.6-4.1 8.2-3.3 2.6-7.6 2.4-4.3-.4-7.2-3-3.7-4.8-10-7.6-6.1-2.8-14.1-2.8-3.3 0-7.2.9-3.7.7-6.5 3.3-2.8 2.4-2.8 7.8 0 5 3.3 8 3.3 2.8 8.7 4.8 5.6 1.7 11.9 3.5 6.5 1.7 13.2 4.1 6.7 2.4 12.4 6.3 5.6 3.9 9.1 10.2 3.5 6.1 3.5 15.6 0 11.1-6.5 18.9-6.5 7.8-16.3 11.9-9.8 3.9-20 3.9-12.8 0-25.6-4.3-12.8-4.6-21.3-15.8zM462.6 14.1q15.6 0 27.8 5.9 12.1 5.9 20.4 16.5 8.5 10.4 12.6 24.3 4.3 13.7 4.3 29.3 0 21-7.6 38.4-7.6 17.1-22.1 27.3-14.3 10.2-35.4 10.2h-51.9q-5.6 0-9.5-3.7-3.7-3.9-3.7-9.5V27.3q0-5.6 3.7-9.3 3.9-3.9 9.5-3.9zm-2.2 126.9q13.7 0 22.3-6.9 8.7-7.2 12.6-18.7 4.1-11.7 4.1-25.4 0-10.2-2.4-19.3-2.2-9.3-6.9-16.3-4.8-7.2-12.1-11.3-7.4-4.1-17.6-4.1h-38l2.2-2V143.4l-1.3-2.4zM596.3 167q-18.4 0-32.1-7.6-13.5-7.8-20.8-21-7.2-13.2-7.2-29.9 0-19.5 7.8-33.2 8-13.9 20.8-21.3 12.8-7.4 27.1-7.4 11.1 0 20.8 4.6 10 4.6 17.6 12.6 7.6 7.8 11.9 18.2 4.6 10.4 4.6 22.1-.2 5.2-4.1 8.5-3.9 3.3-9.1 3.3H550.7l-6.5-21.7h79.6l-4.8 4.3v-5.9q-.4-6.3-4.6-11.3-3.9-5-10-7.8-5.9-3-12.6-3-6.5 0-12.1 1.7-5.6 1.7-9.8 5.9-4.1 4.1-6.5 11.1-2.4 6.9-2.4 17.6 0 11.7 4.8 20 5 8 12.6 12.4 7.8 4.1 16.5 4.1 8 0 12.8-1.3 4.8-1.3 7.6-3 3-2 5.4-3.3 3.9-2 7.4-2 4.8 0 7.8 3.3 3.3 3.3 3.3 7.6 0 5.9-6.1 10.6-5.6 4.8-15.8 8.5-10.2 3.5-21 3.5zM663.1 48.8q4.1 0 7.6 2.2 3.5 2 5.2 6.1l31.9 72.9-4.8 2.2 32.5-74.9q3.7-8.7 11.5-8.2 5.4 0 8.7 3.5 3.5 3.3 3.5 8.2 0 1.5-.7 3.3-.4 1.7-1.1 3.3l-40.6 89.4q-3.5 7.8-11.1 8.2-4.1.7-8-1.5-3.7-2.2-5.6-6.7L651.9 67.2q-.4-1.1-1.1-2.8-.4-1.7-.4-4.1 0-3.9 3.5-7.6 3.5-3.9 9.3-3.9z" aria-label="osDev" font-family="Quicksand" font-size="217" font-weight="700" letter-spacing="-10.6" style="-inkscape-font-specification:&quot;Quicksand Bold&quot;" transform="translate(21.6 20)"/></g></g></svg>